<svg width="40" height="40" viewBox="0 0 40 40" fill="none" xmlns="http://www.w3.org/2000/svg">
<path d="M9.75016 28.5C11.1668 27.4167 12.7502 26.5625 14.5002 25.9375C16.2502 25.3125 18.0835 25 20.0002 25C21.9168 25 23.7502 25.3125 25.5002 25.9375C27.2502 26.5625 28.8335 27.4167 30.2502 28.5C31.2224 27.3612 31.9793 26.0695 32.521 24.625C33.0627 23.1806 33.3335 21.6389 33.3335 20C33.3335 16.3056 32.0349 13.1598 29.4377 10.5625C26.8404 7.96532 23.6946 6.66671 20.0002 6.66671C16.3057 6.66671 13.1599 7.96532 10.5627 10.5625C7.96544 13.1598 6.66683 16.3056 6.66683 20C6.66683 21.6389 6.93766 23.1806 7.47933 24.625C8.021 26.0695 8.77794 27.3612 9.75016 28.5ZM20.0002 21.6667C18.3613 21.6667 16.9793 21.1042 15.8543 19.9792C14.7293 18.8542 14.1668 17.4723 14.1668 15.8334C14.1668 14.1945 14.7293 12.8125 15.8543 11.6875C16.9793 10.5625 18.3613 10 20.0002 10C21.6391 10 23.021 10.5625 24.146 11.6875C25.271 12.8125 25.8335 14.1945 25.8335 15.8334C25.8335 17.4723 25.271 18.8542 24.146 19.9792C23.021 21.1042 21.6391 21.6667 20.0002 21.6667ZM20.0002 36.6667C17.6946 36.6667 15.5279 36.2292 13.5002 35.3542C11.4724 34.4792 9.7085 33.2917 8.2085 31.7917C6.7085 30.2917 5.521 28.5278 4.646 26.5C3.771 24.4723 3.3335 22.3056 3.3335 20C3.3335 17.6945 3.771 15.5278 4.646 13.5C5.521 11.4723 6.7085 9.70837 8.2085 8.20837C9.7085 6.70837 11.4724 5.52087 13.5002 4.64587C15.5279 3.77087 17.6946 3.33337 20.0002 3.33337C22.3057 3.33337 24.4724 3.77087 26.5002 4.64587C28.5279 5.52087 30.2918 6.70837 31.7918 8.20837C33.2918 9.70837 34.4793 11.4723 35.3543 13.5C36.2293 15.5278 36.6668 17.6945 36.6668 20C36.6668 22.3056 36.2293 24.4723 35.3543 26.5C34.4793 28.5278 33.2918 30.2917 31.7918 31.7917C30.2918 33.2917 28.5279 34.4792 26.5002 35.3542C24.4724 36.2292 22.3057 36.6667 20.0002 36.6667Z" fill="#1D1B20"/>
</svg>
